<?xml version="1.0" encoding="UTF-8" standalone="no"?>
<!-- Created with Inkscape (http://www.inkscape.org/) -->

<svg
   width="300"
   height="200"
   viewBox="0 0 300 200"
   version="1.1"
   id="svg1"
   inkscape:version="1.3.2 (091e20e, 2023-11-25, custom)"
   sodipodi:docname="molli_logo_light.svg"
   xml:space="preserve"
   xmlns:inkscape="http://www.inkscape.org/namespaces/inkscape"
   xmlns:sodipodi="http://sodipodi.sourceforge.net/DTD/sodipodi-0.dtd"
   xmlns="http://www.w3.org/2000/svg"
   xmlns:svg="http://www.w3.org/2000/svg"><sodipodi:namedview
     id="namedview1"
     pagecolor="#505050"
     bordercolor="#eeeeee"
     borderopacity="1"
     inkscape:showpageshadow="0"
     inkscape:pageopacity="0"
     inkscape:pagecheckerboard="0"
     inkscape:deskcolor="#505050"
     inkscape:document-units="px"
     inkscape:zoom="2.315539"
     inkscape:cx="168.64324"
     inkscape:cy="66.29126"
     inkscape:window-width="1920"
     inkscape:window-height="1009"
     inkscape:window-x="3832"
     inkscape:window-y="558"
     inkscape:window-maximized="1"
     inkscape:current-layer="layer1"
     inkscape:export-bgcolor="#00000000" /><defs
     id="defs1"><filter
       inkscape:collect="always"
       style="color-interpolation-filters:sRGB"
       id="filter2"
       x="-0.1626996"
       y="-0.47981052"
       width="1.3253992"
       height="1.959621"><feGaussianBlur
         inkscape:collect="always"
         stdDeviation="72.249985"
         id="feGaussianBlur2" /></filter></defs><g
     inkscape:label="Main"
     inkscape:groupmode="layer"
     id="layer1"
     style="display:inline"><g
       id="g43"
       transform="matrix(0.19610655,0,0,0.19610655,9.1125832,-1.9525147)"><path
         id="path9-3"
         style="font-weight:bold;font-size:483.78px;line-height:1.25;font-family:'TeX Gyre Heros';-inkscape-font-specification:'TeX Gyre Heros Bold';display:inline;mix-blend-mode:normal;fill:#e5e5ff;fill-opacity:1;filter:url(#filter2)"
         inkscape:label="outline"
         d="m 931.32402,275.81174 v 352.67578 h 67.72852 V 275.81174 Z m 134.49028,0 v 352.67578 h 67.7304 V 275.81174 Z m -724.70122,87.08008 c -29.99433,0 -49.34575,10.1597 -71.59961,36.76758 V 367.24533 H 202.26738 V 628.48752 H 269.9959 V 471.74338 c 0,-31.92945 17.41658,-51.28125 46.44336,-51.28125 22.73763,0 36.76757,13.06272 36.76757,33.86523 v 174.16016 h 67.72852 V 471.74338 c 0,-31.92945 17.41659,-51.28125 46.44336,-51.28125 22.73764,0 36.76758,13.06272 36.76758,33.86523 V 628.48752 H 571.8748 V 443.68283 c 0,-50.79685 -30.96079,-80.79101 -83.20898,-80.79101 -32.89701,0 -56.11876,11.61147 -76.4375,38.70312 -12.57827,-24.67275 -38.70201,-38.70312 -71.11524,-38.70312 z m 859.19342,4.35351 v 261.24219 h 67.7285 V 367.24533 Z m -446.80865,5.39063 c -72.67689,0 -132.2832,59.60632 -132.2832,132.2832 0,72.67688 59.60631,132.28516 132.2832,132.28516 72.67689,0 132.2832,-59.60828 132.2832,-132.28516 0,-72.67688 -59.60631,-132.2832 -132.2832,-132.2832 z m 0,64.35547 c 37.89737,0 67.92969,30.03038 67.92969,67.92773 0,37.89735 -30.03232,67.92969 -67.92969,67.92969 -37.89737,0 -67.92774,-30.03234 -67.92774,-67.92969 0,-37.89735 30.03037,-67.92773 67.92774,-67.92773 z"
         transform="translate(-16.728358,19.883271)" /><path
         id="path1"
         style="display:inline;opacity:1;fill:#aaaaff;stroke:#00002b;stroke-width:7.55906;stroke-linecap:square;stroke-dasharray:none;stroke-opacity:1;paint-order:markers stroke fill"
         d="m 402.21011,35.374787 a 58.733624,58.733624 0 0 0 -16.63672,1.64844 58.733624,58.733624 0 0 0 -42.97461,71.082033 58.733624,58.733624 0 0 0 68.50977,43.41602 l 3.9746,5.06446 203.49024,259.20898 1.52344,1.9414 a 156.59927,156.59927 0 0 0 -36.06641,142.36524 156.59927,156.59927 0 0 0 33.8418,64.73242 l -1.64454,2 -210.90624,256.69733 -4.07227,4.955 a 58.733624,58.733624 0 0 0 -26.82226,0.1915 58.733624,58.733624 0 0 0 -42.97461,71.08201 58.733624,58.733624 0 0 0 71.08009,42.97458 58.733624,58.733624 0 0 0 42.97459,-71.08008 58.733624,58.733624 0 0 0 -3.36914,-9.582 l 4.06837,-4.9512 210.90624,-256.6973 1.65039,-2.00781 a 156.59927,156.59927 0 0 0 114.78712,16.26758 156.59927,156.59927 0 0 0 94.71678,-68.16797 L 1151.882,765.37871 a 58.733624,58.733624 0 0 0 1.6113,15.2773 58.733624,58.733624 0 0 0 71.082,42.9747 58.733624,58.733624 0 0 0 42.9746,-71.08014 58.733624,58.733624 0 0 0 -71.0819,-42.97461 58.733624,58.733624 0 0 0 -21.0391,10.04884 L 881.21596,581.35722 a 156.59927,156.59927 0 0 0 6.91602,-96.19336 156.59927,156.59927 0 0 0 -4.00195,-12.36914 L 1168.1261,327.74199 a 58.733624,58.733624 0 0 0 64.4102,26.89063 58.733624,58.733624 0 0 0 42.9746,-71.08008 58.733624,58.733624 0 0 0 -71.0801,-42.97462 58.733624,58.733624 0 0 0 -44.4961,59.10743 L 859.81167,426.82987 a 156.59927,156.59927 0 0 0 -161.19922,-56.24804 156.59927,156.59927 0 0 0 -36.85547,14.52734 l -1.5625,-1.98828 -203.49023,-259.20899 -3.89258,-4.95898 a 58.733624,58.733624 0 0 0 3.84375,-38.955083 58.733624,58.733624 0 0 0 -54.44531,-44.62305 z" /><path
         style="font-weight:bold;font-size:483.78px;line-height:1.25;font-family:'TeX Gyre Heros';-inkscape-font-specification:'TeX Gyre Heros Bold';display:inline;fill:#00002b"
         d="m 1251.3056,648.37108 v -261.2412 h -67.7292 v 261.2412 z"
         id="path9"
         inkscape:label="letter_i_base" /><path
         style="font-weight:bold;font-size:483.78px;line-height:1.25;font-family:'TeX Gyre Heros';-inkscape-font-specification:'TeX Gyre Heros Bold';display:inline;fill:#00002b"
         d="M 1116.8148,648.37108 V 295.69546 h -67.7292 v 352.67562 z"
         id="path8"
         inkscape:label="letter_l2" /><path
         style="font-weight:bold;font-size:483.78px;line-height:1.25;font-family:'TeX Gyre Heros';-inkscape-font-specification:'TeX Gyre Heros Bold';display:inline;fill:#00002b"
         d="M 982.32399,648.37108 V 295.69546 h -67.72921 v 352.67562 z"
         id="path7"
         inkscape:label="letter_l1" /><path
         style="font-weight:bold;font-size:483.78px;line-height:1.25;font-family:'TeX Gyre Heros';-inkscape-font-specification:'TeX Gyre Heros Bold';display:inline;fill:#00002b"
         d="M 555.14626,648.37108 V 463.56712 c 0,-50.7969 -30.96192,-80.79126 -83.21016,-80.79126 -32.89704,0 -56.11848,11.61072 -76.43724,38.7024 -12.57828,-24.67278 -38.7024,-38.7024 -71.11566,-38.7024 -29.99436,0 -49.34556,10.15938 -71.59944,36.76728 v -32.41326 h -67.24542 v 261.2412 h 67.7292 V 491.62636 c 0,-31.92948 17.41608,-51.28068 46.44288,-51.28068 22.73766,0 36.76728,13.06206 36.76728,33.8646 v 174.1608 h 67.7292 V 491.62636 c 0,-31.92948 17.41608,-51.28068 46.44288,-51.28068 22.73766,0 36.76728,13.06206 36.76728,33.8646 v 174.1608 z"
         id="text1"
         inkscape:label="letter_m" /><ellipse
         style="display:inline;fill:none;stroke:#00002b;stroke-width:64.3542;stroke-dasharray:none"
         id="path11-4"
         cx="736.76941"
         cy="524.80365"
         rx="100.1064"
         ry="100.10638"
         inkscape:label="replacement_o" /><circle
         style="display:inline;fill:#e1f400;fill-opacity:1;stroke:#00002b;stroke-width:9.80409;stroke-linecap:square;stroke-dasharray:none"
         id="path21"
         cx="1218.8273"
         cy="296.18323"
         r="42.322762"
         inkscape:label="replacement_dot" /></g></g></svg>
