<?xml version="1.0" encoding="UTF-8" standalone="no"?>
<!-- Created with Inkscape (http://www.inkscape.org/) -->

<svg
   width="1500"
   height="1500"
   viewBox="0 0 1500 1500"
   version="1.1"
   id="svg1"
   inkscape:version="1.3.2 (091e20e, 2023-11-25, custom)"
   sodipodi:docname="molli_logo.svg"
   xml:space="preserve"
   xmlns:inkscape="http://www.inkscape.org/namespaces/inkscape"
   xmlns:sodipodi="http://sodipodi.sourceforge.net/DTD/sodipodi-0.dtd"
   xmlns="http://www.w3.org/2000/svg"
   xmlns:svg="http://www.w3.org/2000/svg"><sodipodi:namedview
     id="namedview1"
     pagecolor="#505050"
     bordercolor="#eeeeee"
     borderopacity="1"
     inkscape:showpageshadow="0"
     inkscape:pageopacity="0"
     inkscape:pagecheckerboard="0"
     inkscape:deskcolor="#505050"
     inkscape:document-units="px"
     inkscape:zoom="0.40933334"
     inkscape:cx="577.76873"
     inkscape:cy="856.27035"
     inkscape:window-width="1920"
     inkscape:window-height="1001"
     inkscape:window-x="-7"
     inkscape:window-y="-7"
     inkscape:window-maximized="1"
     inkscape:current-layer="g43"
     inkscape:export-bgcolor="#00000000" /><defs
     id="defs1"><filter
       inkscape:collect="always"
       style="color-interpolation-filters:sRGB"
       id="filter43"
       x="-0.14129876"
       y="-0.11896166"
       width="1.2825975"
       height="1.2379238"><feGaussianBlur
         inkscape:collect="always"
         stdDeviation="46.368016"
         id="feGaussianBlur43" /></filter></defs><g
     inkscape:label="Main"
     inkscape:groupmode="layer"
     id="layer1"
     style="display:inline"><g
       id="g43"
       transform="translate(29.276738,-15.573467)"><path
         id="path39"
         style="display:inline;opacity:0.75;fill:none;stroke:#c0c3ec;stroke-width:50;stroke-linecap:round;stroke-linejoin:round;stroke-dasharray:none;stroke-opacity:1;paint-order:stroke fill markers;filter:url(#filter43)"
         d="m -117.77584,407.8784 a 58.733624,58.733624 0 0 0 2.38003,-16.5479 58.733624,58.733624 0 0 0 -58.73504,-58.73386 58.733624,58.733624 0 0 0 -58.547,56.13188 l -5.86834,2.64741 -300.36825,135.55989 -2.24952,1.01468 a 156.59927,156.59927 0 0 0 -129.60067,-69.08193 156.59927,156.59927 0 0 0 -70.94939,17.37059 l -1.54843,-2.0753 -198.77866,-266.19912 -3.8368,-5.13956 a 58.733624,58.733624 0 0 0 6.2318,-26.08899 58.733624,58.733624 0 0 0 -58.73505,-58.73386 58.733624,58.733624 0 0 0 -58.73344,58.73315 58.733624,58.733624 0 0 0 58.7332,58.73339 58.733624,58.733624 0 0 0 10.10983,-0.97863 l 3.83394,5.13484 198.77867,266.19912 1.55461,2.08286 a 156.59927,156.59927 0 0 0 -43.25968,107.56075 156.59927,156.59927 0 0 0 43.5255,108.27591 l -36.28023,38.77373 -15.44424,-3.80581 -6.7943,27.57168 -163.5896,174.82727 a 58.733624,58.733624 0 0 0 -15.2191,-2.09081 58.733624,58.733624 0 0 0 -58.7339,58.73502 58.733624,58.733624 0 0 0 58.7332,58.7334 58.733624,58.733624 0 0 0 58.73385,-58.735 58.733624,58.733624 0 0 0 -4.72303,-22.83233 l 134.31948,-165.78274 200.24033,49.34386 17.13538,72.98143 -252.2812,-62.16793 -16.20557,65.76318 285.87014,70.44503 13.16898,56.0906 a 58.733624,58.733624 0 0 0 -41.5207,56.1053 58.733624,58.733624 0 0 0 58.73315,58.7334 58.733624,58.733624 0 0 0 58.73339,-58.7331 58.733624,58.733624 0 0 0 -46.74421,-57.3461 l -7.42005,-46.2375 21.61131,5.3256 16.20558,-65.76323 -49.47126,-12.19086 -11.48791,-71.58977 76.93295,18.95806 16.2051,-65.76128 -104.79098,-25.82293 -9.42712,-58.74509 a 156.59927,156.59927 0 0 0 93.1837,-143.05883 156.59927,156.59927 0 0 0 -5.28714,-39.26086 l 2.30438,-1.04139 300.36826,-135.55989 5.7463,-2.593 a 58.733624,58.733624 0 0 0 36.90392,13.05271 58.733624,58.733624 0 0 0 56.35383,-42.18714 z M -436.46457,249.19179 c 7.17661,-29.12312 1.94213,-50.34333 -18.56831,-78.31715 l 31.47067,7.7551 16.08968,-65.29287 -253.65229,-62.505808 -16.2051,65.761288 152.19137,37.50348 c 31.00203,7.63962 45.62455,29.18055 38.67944,57.36421 -5.44033,22.0772 -21.48051,32.57417 -41.6788,27.59685 l -169.10153,-41.67054 -16.2051,65.76128 152.19137,37.50349 c 31.00203,7.63962 45.62455,29.18054 38.67944,57.36421 -5.44033,22.0772 -21.48051,32.57417 -41.6788,27.59685 l -169.10153,-41.67054 -16.2051,65.76128 179.43687,44.21741 c 49.32142,12.15394 85.85223,-10.731 98.35342,-61.4616 7.87113,-31.94148 2.15309,-57.26697 -19.29009,-83.47763 26.96566,-6.30958 46.83902,-28.31755 54.59439,-59.78931 z m -209.80438,833.19521 -253.65229,-62.5058 -16.20511,65.7613 253.65229,62.5058 z m -3.70906,-277.94292 -135.74963,-33.45186 23.21827,-28.65591 a 156.59927,156.59927 0 0 0 91.74457,29.7309 156.59927,156.59927 0 0 0 12.9674,-0.9262 z"
         transform="rotate(-103.8432,77.7268,164.94093)" /><path
         id="path1"
         style="display:inline;opacity:1;fill:#aaaaff;stroke:#00002b;stroke-width:7.55906;stroke-linecap:square;stroke-dasharray:none;stroke-opacity:1;paint-order:markers stroke fill"
         d="m 389.66175,281.06498 a 58.733624,58.733624 0 0 0 -16.63672,1.64844 58.733624,58.733624 0 0 0 -42.97461,71.08203 58.733624,58.733624 0 0 0 68.50977,43.41602 l 3.9746,5.06446 203.49024,259.20898 1.52344,1.9414 a 156.59927,156.59927 0 0 0 -36.06641,142.36524 156.59927,156.59927 0 0 0 33.8418,64.73242 l -1.64454,2 -210.90624,256.69733 -4.07227,4.955 a 58.733624,58.733624 0 0 0 -26.82226,0.1915 58.733624,58.733624 0 0 0 -42.97461,71.082 58.733624,58.733624 0 0 0 71.08009,42.9746 58.733624,58.733624 0 0 0 42.97459,-71.0801 58.733624,58.733624 0 0 0 -3.36914,-9.582 l 4.06837,-4.9512 210.90624,-256.69729 1.65039,-2.00781 a 156.59927,156.59927 0 0 0 114.78712,16.26758 156.59927,156.59927 0 0 0 94.71678,-68.16797 l 283.61522,158.86329 a 58.733624,58.733624 0 0 0 1.6113,15.2773 58.733624,58.733624 0 0 0 71.082,42.9747 58.733624,58.733624 0 0 0 42.9746,-71.08014 58.733624,58.733624 0 0 0 -71.0819,-42.97461 58.733624,58.733624 0 0 0 -21.0391,10.04884 L 868.6676,827.04741 a 156.59927,156.59927 0 0 0 6.91602,-96.19336 156.59927,156.59927 0 0 0 -4.00195,-12.36914 L 1155.5777,573.43218 a 58.733624,58.733624 0 0 0 64.4102,26.89063 58.733624,58.733624 0 0 0 42.9746,-71.08008 58.733624,58.733624 0 0 0 -71.0801,-42.97462 58.733624,58.733624 0 0 0 -44.4961,59.10743 L 847.26331,672.52006 a 156.59927,156.59927 0 0 0 -161.19922,-56.24804 156.59927,156.59927 0 0 0 -36.85547,14.52734 l -1.5625,-1.98828 -203.49023,-259.20899 -3.89258,-4.95898 a 58.733624,58.733624 0 0 0 3.84375,-38.95508 58.733624,58.733624 0 0 0 -54.44531,-44.62305 z" /><path
         style="font-weight:bold;font-size:483.78px;line-height:1.25;font-family:'TeX Gyre Heros';-inkscape-font-specification:'TeX Gyre Heros Bold';display:inline;fill:#00002b"
         d="m 1238.7572,894.06127 v -261.2412 h -67.7292 v 261.2412 z"
         id="path9"
         inkscape:label="letter_i_base" /><path
         style="font-weight:bold;font-size:483.78px;line-height:1.25;font-family:'TeX Gyre Heros';-inkscape-font-specification:'TeX Gyre Heros Bold';display:inline;fill:#00002b"
         d="M 1104.2664,894.06127 V 541.38565 h -67.7292 v 352.67562 z"
         id="path8"
         inkscape:label="letter_l2" /><path
         style="font-weight:bold;font-size:483.78px;line-height:1.25;font-family:'TeX Gyre Heros';-inkscape-font-specification:'TeX Gyre Heros Bold';display:inline;fill:#00002b"
         d="M 969.77563,894.06127 V 541.38565 h -67.72921 v 352.67562 z"
         id="path7"
         inkscape:label="letter_l1" /><path
         style="font-weight:bold;font-size:483.78px;line-height:1.25;font-family:'TeX Gyre Heros';-inkscape-font-specification:'TeX Gyre Heros Bold';display:inline;fill:#00002b"
         d="M 542.5979,894.06127 V 709.25731 c 0,-50.7969 -30.96192,-80.79126 -83.21016,-80.79126 -32.89704,0 -56.11848,11.61072 -76.43724,38.7024 -12.57828,-24.67278 -38.7024,-38.7024 -71.11566,-38.7024 -29.99436,0 -49.34556,10.15938 -71.59944,36.76728 v -32.41326 h -67.24542 v 261.2412 h 67.7292 V 737.31655 c 0,-31.92948 17.41608,-51.28068 46.44288,-51.28068 22.73766,0 36.76728,13.06206 36.76728,33.8646 v 174.1608 h 67.7292 V 737.31655 c 0,-31.92948 17.41608,-51.28068 46.44288,-51.28068 22.73766,0 36.76728,13.06206 36.76728,33.8646 v 174.1608 z"
         id="text1"
         inkscape:label="letter_m" /><ellipse
         style="display:inline;fill:none;stroke:#00002b;stroke-width:64.3542;stroke-dasharray:none"
         id="path11-4"
         cx="724.22107"
         cy="770.49384"
         rx="100.1064"
         ry="100.10638"
         inkscape:label="replacement_o" /><circle
         style="display:inline;fill:#e1f400;fill-opacity:1;stroke:#00002b;stroke-width:9.80409;stroke-linecap:square;stroke-dasharray:none"
         id="path21"
         cx="1206.2789"
         cy="541.87341"
         r="42.322762"
         inkscape:label="replacement_dot" /></g></g></svg>
